# xmcd
#
# Track frame offsets: 
#        150
#        11980
#        43374
#        61034
#        95585
#        109439
#        147414
#
# Disc length: 2607 seconds
#
# Revision: 1
# Processed by: cddbd v1.5.2PL0 Copyright (c) Steve Scherf et al.
# Submitted via: ExactAudioCopy v0.99pb4
#
DISCID=670a2d07
DTITLE=The Who - Endless Wire (Deluxe Edition)  CD2
DYEAR=2006
DGENRE=Rock
TTITLE0=The Seeker
TTITLE1=Who Are You
TTITLE2=Mike Post Theme
TTITLE3=Relay
TTITLE4=Greyhound Girl
TTITLE5=Naked Eye
TTITLE6=Won't Get Fooled Again
EXTD=
EXTT0=
EXTT1=
EXTT2=
EXTT3=
EXTT4=
EXTT5=
EXTT6=
PLAYORDER=
